<?xml version="1.0" encoding="UTF-8"?>
<svg version="1.1" xmlns="http://www.w3.org/2000/svg" width="512" height="512">
<path d="M0 0 C2.16523672 2.02534783 3.28002379 3.51004334 4.75 6.1875 C10.23735847 15.92910268 18.12087698 22.10101752 28.875 25.375 C41.26419533 27.80227092 52.74935504 25.6737573 63.3125 18.8125 C68.13624695 15.22780922 71.62059767 10.93482261 75 6 C75.76957031 6.33128906 76.53914062 6.66257813 77.33203125 7.00390625 C80.84080446 8.31391674 82.38090029 8.0242735 86 7 C88.55580312 5.82482364 91.04891878 4.56968753 93.53515625 3.25390625 C100.05288433 -0.06176841 100.05288433 -0.06176841 103.515625 0.1640625 C106.4179568 1.14063326 108.33198414 2.50222301 110.75 4.375 C119.92739805 11.00010392 129.82327008 12.87763334 141 11.375 C148.31939526 9.9732135 154.76201505 7.22911036 160.25 2.125 C163 0 163 0 165.79296875 0.21875 C169.05580977 1.01359556 171.97417263 2.05997028 175.0625 3.375 C176.06410156 3.79523438 177.06570313 4.21546875 178.09765625 4.6484375 C181 6 181 6 183.6328125 7.74609375 C185.86280051 9.23912497 185.86280051 9.23912497 188.01953125 8.63671875 C188.90705078 8.16685547 188.90705078 8.16685547 189.8125 7.6875 C190.864375 7.130625 191.91625 6.57375 193 6 C193.53367187 6.72445312 194.06734375 7.44890625 194.6171875 8.1953125 C201.93043818 17.68482463 209.99484377 23.91516824 222 26 C234.2866701 27.09080178 245.19266802 24.72132803 255 17 C259.99102339 11.80809951 263.93785919 6.5274475 267 0 C281.18453681 4.23905698 304.97493694 11.39717869 312.8125 25 C314.49180293 29.3389096 314.17340447 32.52639544 313 37 C310.7548441 40.56128178 308.82008347 42.35573402 305 44 C295.73055747 45.49507138 289.53644723 40.80274304 282 36 C290.94175284 43.47865408 290.94175284 43.47865408 302 46 C307.22450599 44.37860159 310.45874689 42.14832507 314 38 C314.23332031 37.30777344 314.46664063 36.61554688 314.70703125 35.90234375 C316 34 316 34 319.0546875 33.3125 C320.31539063 33.209375 321.57609375 33.10625 322.875 33 C338.8240626 31.34345024 352.17014862 24.35398991 364.9921875 15.05078125 C370.36250628 11.38920026 374.39392867 9.17424108 381 10 C384.92465988 12.1132784 387.63811003 14.22914397 390 18 C390.43359375 20.3671875 390.43359375 20.3671875 390.4375 22.875 C390.45683594 23.69742188 390.47617187 24.51984375 390.49609375 25.3671875 C388.99731805 33.32131997 381.93998592 37.583764 375.71044922 41.86083984 C353.4771172 56.66825166 328.83314685 63.98451343 302.13893127 59.51593018 C299.42328087 58.86088997 296.86818189 57.91996891 294.24975586 56.94824219 C293.26494736 56.58446472 292.28013885 56.22068726 291.26548767 55.84588623 C290.51787674 55.56674377 289.77026581 55.28760132 289 55 C294.18075769 95.43951294 300.2406926 135.39396276 310.5625 174.875 C310.87701111 176.07945896 310.87701111 176.07945896 311.19787598 177.30825043 C313.74972983 187.06189491 316.36237449 196.79878019 318.99202156 206.53168869 C322.6944603 220.25670086 326.26851917 234.01579411 329.8266573 247.77881241 C331.08403946 252.63799889 332.35804781 257.4923692 333.64770222 262.3430872 C334.4396836 265.33186028 335.21970558 268.32366778 335.99694252 271.31630516 C336.35613974 272.68904045 336.72026619 274.06049798 337.08995628 275.43044472 C339.61230248 284.79136479 342.29824197 295.00778861 338.5 304.375 C335.6665636 309.25707207 330.98250406 312.50874797 326 315 C317.94554283 315.84502273 311.56605572 315.80520342 304.8671875 310.99609375 C300.37325514 306.19191083 298.29321985 300.53883731 296.6862793 294.26806641 C296.48152072 293.50109247 296.27676214 292.73411854 296.06579876 291.94390297 C295.36477295 289.2990281 294.68119512 286.65004906 294 284 C293.617815 282.52538929 293.617815 282.52538929 293.22790909 281.02098846 C291.13137662 272.92448013 289.07371005 264.81827518 287.01953125 256.7109375 C286.35903196 254.11019613 285.69837706 251.50949477 285.03752136 248.90884399 C283.48723221 242.80658811 281.93899205 236.70381437 280.39151067 230.60084593 C278.63474905 223.67299213 276.87548851 216.74577365 275.11610568 209.81858516 C272.37635701 199.03098871 269.63786112 188.24307433 266.90161133 177.45458984 C266.63613495 176.40824371 266.37065857 175.36189758 266.09713745 174.28384399 C265.61311418 172.37495947 265.13045651 170.46572789 264.64948463 168.55607224 C264.2338356 166.92026916 263.81021228 165.28645872 263.37637901 163.65538406 C262.48787074 160.27598915 262 157.52680162 262 154 C258.7 154.33 255.4 154.66 252 155 C252.00460896 155.73291952 252.00921793 156.46583904 252.01396656 157.22096825 C252.12455545 175.08313979 252.20720975 192.94524268 252.25906086 210.80768394 C252.28480444 219.44597063 252.31988097 228.08402831 252.37719727 236.72216797 C252.42715052 244.25423677 252.45931896 251.78613965 252.47044247 259.31836951 C252.47694119 263.3039509 252.49213355 267.28905776 252.52865028 271.27448654 C252.56279895 275.03220472 252.57301549 278.78925671 252.56553841 282.54711533 C252.56755195 284.57062059 252.59434775 286.59405467 252.62210083 288.61737061 C252.57838829 296.41050009 251.63725719 302.56298259 247 309 C241.2290636 314.473524 235.75652159 315.36080458 228.078125 315.27734375 C222.16931839 314.74495128 218.01013651 312.43693851 214.125 308 C210.95486158 303.52451046 209.74527028 300.92248648 209.81573486 295.38774109 C209.82483855 294.24077318 209.83394224 293.09380527 209.8433218 291.91208076 C209.86312131 290.65420691 209.88292082 289.39633305 209.90332031 288.1003418 C209.91666264 286.75463825 209.92888311 285.40892318 209.94007206 284.0632 C209.96534327 281.14891025 209.99564886 278.23473218 210.02935219 275.32052803 C210.11803305 267.34888788 210.14601992 259.37681227 210.17944336 251.40478516 C210.18308848 250.56829174 210.1867336 249.73179832 210.19048917 248.86995661 C210.41499024 196.20557053 210.60718166 144.23272134 201.9375 92.125 C201.77081314 91.12292385 201.60412628 90.1208477 201.43238831 89.08840561 C199.62217397 78.30210056 197.67595474 67.54779316 195.52476501 56.82424927 C195 54 195 54 195 52 C194.34 52 193.68 52 193 52 C191.4921875 50.57421875 191.4921875 50.57421875 189.875 48.6875 C189.33617187 48.07261719 188.79734375 47.45773438 188.2421875 46.82421875 C187 45 187 45 187 42 C189.1875 40.17578125 189.1875 40.17578125 192 38.3125 C192.928125 37.68988281 193.85625 37.06726563 194.8125 36.42578125 C195.8953125 35.72001953 195.8953125 35.72001953 197 35 C195.64268354 35.72328655 194.28934087 36.45403041 192.9375 37.1875 C191.80634766 37.79658203 191.80634766 37.79658203 190.65234375 38.41796875 C189.77707031 38.94003906 188.90179688 39.46210938 188 40 C187.12877569 40.44042985 187.12877569 40.44042985 186.2399509 40.88975728 C183.34677799 42.56412289 181.35632032 43.8322838 180.35340357 47.11899543 C180.10681547 49.83342947 180.08828011 52.47162264 180.14044189 55.19699097 C180.13249407 56.23354643 180.12454624 57.27010189 180.11635756 58.33806813 C180.09811724 61.81714793 180.1298108 65.29398868 180.16113281 68.77294922 C180.15815662 71.26476582 180.15206368 73.75658038 180.14308167 76.24838257 C180.1304339 81.61733103 180.13898982 86.98561063 180.16638947 92.35445786 C180.20574166 100.1244099 180.20360775 107.8939256 180.19083425 115.66394676 C180.17094006 128.28043453 180.18004107 140.89672023 180.20947266 153.51318359 C180.23791806 165.75081555 180.26024915 177.98841064 180.26904297 190.22607422 C180.26959125 190.97949966 180.27013953 191.73292509 180.27070442 192.5091816 C180.27634085 200.73748809 180.27822137 208.96578607 180.27430344 217.1940937 C180.27378811 218.27945224 180.27378811 218.27945224 180.27326237 219.38673721 C180.27180325 222.27967429 180.27024918 225.17261114 180.26815495 228.06554784 C180.26204268 236.52964823 180.26777214 244.99353255 180.29517952 253.45759417 C180.31392931 259.39631677 180.31834301 265.33499231 180.31767082 271.27374649 C180.32005581 273.70900811 180.32763767 276.14427099 180.34078407 278.57949829 C180.35811507 281.90283179 180.3570828 285.22567901 180.35162354 288.54904175 C180.36124595 289.51354213 180.37086836 290.4780425 180.38078237 291.47177017 C180.33393309 299.635735 178.24297912 305.40556061 172.65234375 311.48828125 C167.70875417 316.01113981 162.13080678 316.55008032 155.71484375 316.34765625 C149.97336122 315.61241604 146.31903047 313.26040689 142.1875 309.3125 C136.79578591 301.14790437 136.57541553 293.16581643 136.65942383 283.58569336 C136.65898575 282.26764709 136.65854767 280.94960083 136.65809631 279.59161377 C136.65724092 276.00329299 136.67479196 272.41527738 136.69581819 268.82702708 C136.71466172 265.0674451 136.71634144 261.30785495 136.71989441 257.54823303 C136.72919245 250.44048117 136.75377561 243.33286889 136.78394288 236.2251783 C136.81755697 228.1284082 136.83399046 220.03163119 136.84902918 211.93480861 C136.88032739 195.28979089 136.93304389 178.6449133 137 162 C135.02 162 133.04 162 131 162 C131.00184359 162.68322578 131.00368717 163.36645157 131.00558662 164.07038116 C131.04980228 180.71350997 131.08287437 197.35662012 131.10362434 213.99979401 C131.11392621 222.04838677 131.12796567 230.09694026 131.15087891 238.14550781 C131.17084618 245.16263083 131.18372436 252.17972541 131.18817699 259.19687605 C131.19077872 262.91058849 131.19687114 266.62421958 131.21146011 270.33790588 C131.22763427 274.4889788 131.22797755 278.63991127 131.22705078 282.79101562 C131.23424133 284.01525238 131.24143188 285.23948914 131.24884033 286.50082397 C131.22415108 296.72461601 130.1758561 304.31031716 123 312 C117.22007741 316.26613334 111.00729951 316.73872133 104 316 C97.90300565 314.21813193 93.33421917 310.3729774 90 305 C87.65266224 299.53686114 87.74885269 294.53545799 87.82246399 288.70294189 C87.82725507 287.6676487 87.83204616 286.63235551 87.83698243 285.5656898 C87.8550974 282.09738054 87.88734226 278.62934103 87.91918945 275.16113281 C87.93444799 272.67404807 87.94861164 270.1869564 87.96176147 267.69985962 C87.9871554 263.03730403 88.01532432 258.37478967 88.04756489 253.7122781 C88.11036759 244.54704131 88.14225101 235.38191261 88.16239929 226.2164917 C88.16569943 224.77208113 88.16900067 223.32767057 88.17230302 221.88326001 C88.17888107 218.95923647 88.18527652 216.0352126 88.1915592 213.11118841 C88.20775775 205.59951088 88.22504482 198.08783823 88.24584961 190.57617188 C88.24896218 189.44577182 88.24896218 189.44577182 88.25213762 188.29253539 C88.28721659 176.0840458 88.36942431 163.87626943 88.46721552 151.66814128 C88.56644155 139.1224024 88.60834731 126.57736377 88.59901971 114.03123355 C88.59520094 106.29855378 88.63669236 98.56884445 88.73694458 90.83680174 C88.8091978 84.90651448 88.80235528 78.97795435 88.7664299 73.04728317 C88.76413405 70.61962416 88.78745382 68.19178239 88.83854103 65.76465988 C89.59129233 53.77769915 89.59129233 53.77769915 85.44367576 43.00545406 C81.4254803 39.36056551 76.98498437 37.06136829 72 35 C72.51771973 35.45060791 73.03543945 35.90121582 73.56884766 36.36547852 C74.80371094 37.44026693 76.03857422 38.51505534 77.2734375 39.58984375 C78.95632334 41.06958624 78.95632334 41.06958624 81 42 C80.4274926 45.52691019 79.27558252 46.86580631 76.66943359 49.23413086 C71.33155692 55.18321544 70.57956444 62.64206001 69.2890625 70.25390625 C69.14223274 71.08290813 68.99540298 71.91191002 68.84412384 72.76603317 C67.68141412 79.35149637 66.64259861 85.9532975 65.625 92.5625 C65.46871376 93.55164021 65.31242752 94.54078041 65.15140533 95.55989456 C57.18839769 146.11884813 57.63065446 196.86229184 57.97809315 247.90416431 C57.99444809 250.38299485 58.00882117 252.86182913 58.02257538 255.34067535 C58.03179781 256.95137069 58.04109722 258.56206558 58.05047607 260.17276001 C58.05725215 261.34894524 58.05725215 261.34894524 58.06416512 262.54889178 C58.09336239 267.13674084 58.14554064 271.72360924 58.21688187 276.3109892 C58.25741423 279.12858075 58.28205535 281.94616763 58.30318904 284.76396453 C58.32301003 286.6688013 58.36386522 288.5733835 58.40551186 290.47786808 C58.44709941 297.96276971 57.92567662 303.79207551 52.58744621 309.51411343 C46.82971037 314.65240968 41.47676223 315.45930982 34.0078125 315.3125 C28.20501541 314.70961199 24.02803132 312.42399101 20.125 308.125 C16.74233313 303.1504899 15.74907815 298.77821771 15.75949097 292.81167603 C15.75536697 290.98184677 15.75536697 290.98184677 15.75115967 289.11505127 C15.75823645 287.7767324 15.76550604 286.43841454 15.77294922 285.10009766 C15.77351381 283.68051156 15.77319584 282.26092487 15.77206421 280.84133911 C15.77149156 276.99879025 15.78323167 273.15636684 15.79721212 269.31384706 C15.80973407 265.2939852 15.81089114 261.2741203 15.81326294 257.25424194 C15.81947341 249.64706432 15.83587836 242.03994434 15.85596192 234.43279207 C15.87833441 225.77018982 15.88931774 217.10758479 15.89935279 208.44496083 C15.92024497 190.62994124 15.95541252 172.81497526 16 155 C12.7 154.67 9.4 154.34 6 154 C5.82210182 155.68989296 5.82210182 155.68989296 5.64060974 157.41392517 C5.04221791 162.17260142 3.94116392 166.73657792 2.75024414 171.37719727 C2.4083606 172.73338669 2.4083606 172.73338669 2.05957031 174.11697388 C1.30601455 177.10129858 0.5456367 180.08383931 -0.21484375 183.06640625 C-0.75036691 185.18104536 -1.28547955 187.29578848 -1.82020569 189.41062927 C-3.23412817 194.99774677 -4.65390238 200.58336154 -6.0748291 206.16870117 C-7.48134505 211.70201892 -8.88197763 217.23682503 -10.28320312 222.77148438 C-12.73421024 232.45035792 -15.19665895 242.12627524 -17.66354942 251.80111122 C-19.19135234 257.80028778 -20.70448224 263.80288382 -22.20225048 269.80962849 C-23.10694334 273.43449277 -24.01844411 277.05762584 -24.93097115 280.68052483 C-25.34817116 282.34445224 -25.76214012 284.00919379 -26.17255974 285.67480659 C-31.41335138 306.93329475 -31.41335138 306.93329475 -38.125 311.4375 C-38.80820313 311.91058594 -39.49140625 312.38367188 -40.1953125 312.87109375 C-45.60069324 316.2523817 -51.80968301 315.60409892 -58 315 C-64.02444275 312.78675198 -68.37480454 308.49109259 -71.0801239 302.67977905 C-74.39345132 293.02740802 -71.01711643 282.49097194 -68.51171875 273.0234375 C-68.13631974 271.56170616 -67.76220575 270.09964429 -67.38926697 268.63728333 C-66.5891963 265.5114396 -65.78016817 262.38810903 -64.96392822 259.26644897 C-63.66737305 254.30697112 -62.39282176 249.34198827 -61.12060547 244.3762207 C-57.33825498 229.63500588 -53.50162151 214.90794271 -49.65267658 200.18399429 C-47.92267614 193.56481306 -46.20044982 186.943633 -44.48231792 180.32136154 C-43.46812896 176.41590474 -42.44836354 172.51209154 -41.41464233 168.61175537 C-36.17522424 148.83925009 -31.99572784 129.2602862 -29 109 C-28.62456041 106.53168832 -28.24825701 104.06350787 -27.87109375 101.59545898 C-26.78518368 94.442201 -25.73358233 87.28417224 -24.6875 80.125 C-24.32513206 77.66011768 -23.96250246 75.19527381 -23.59960938 72.73046875 C-22.7300824 66.82074848 -21.86368535 60.91057669 -21 55 C-22.1220282 55.41871368 -22.1220282 55.41871368 -23.26672363 55.84588623 C-24.74441223 56.39155243 -24.74441223 56.39155243 -26.25195312 56.94824219 C-27.22684692 57.30988464 -28.20174072 57.6715271 -29.20617676 58.04412842 C-49.78039727 65.08333992 -73.04273794 60.29012788 -92.06445312 50.99072266 C-115.98606838 38.7204868 -115.98606838 38.7204868 -122 28 C-122.89675663 23.94294931 -122.95534064 19.84271238 -121.01171875 16.09375 C-118.79389926 13.2922938 -116.43887816 11.01143475 -113 10 C-105.48881798 9.30452018 -101.29778778 12.04642653 -95.375 16.25 C-82.83621819 25.10750011 -70.37872629 31.52378497 -54.9375 32.75 C-48.57651013 33.41783781 -48.57651013 33.41783781 -46.0078125 36.01171875 C-45.06082867 37.60111593 -44.15741371 39.21747982 -43.3046875 40.859375 C-41.44043236 43.91809302 -39.51488036 44.82617151 -36.12109375 45.75 C-26.95364313 46.83050983 -20.01251904 41.2511843 -13 36 C-12.01 35.01 -12.01 35.01 -11 34 C-11.46784912 34.30292969 -11.93569824 34.60585937 -12.41772461 34.91796875 C-14.57815661 36.29996487 -16.75707933 37.64978134 -18.9375 39 C-19.67291016 39.47695312 -20.40832031 39.95390625 -21.16601562 40.4453125 C-26.45664754 43.67975996 -30.78937661 45.0301256 -37 44 C-41.11293161 42.09586499 -42.64916002 40.5998232 -44.9375 36.6875 C-46.14602816 32.49319638 -46.14490978 30.19800254 -45 26 C-37.21276509 12.37681433 -14.44751694 4.15913366 0 0 Z M277 33 C277.33 33.66 277.66 34.32 278 35 C278.66 34.67 279.32 34.34 280 34 C279.01 33.67 278.02 33.34 277 33 Z " fill="#000000" transform="translate(122,131)"/>
<path d="M0 0 C7.86468437 7.66882058 11.92457145 17.41022917 12.2265625 28.30078125 C12.05350425 39.76108287 8.00575345 48.61473892 0.234375 56.9453125 C-6.73378857 63.42992024 -15.95777971 66.81889192 -25.421875 67.0859375 C-38.58160758 66.50074332 -46.94775597 62.60856828 -55.9609375 52.98828125 C-62.79773697 45.01441408 -65.37319339 35.93209725 -64.9609375 25.48828125 C-63.80408287 15.21196615 -59.87375962 5.83180308 -51.9609375 -1.01171875 C-35.53245714 -12.69419367 -15.78146457 -13.02110239 0 0 Z " fill="#000000" transform="translate(376.9609375,89.01171875)"/>
<path d="M0 0 C2.625 2.4375 2.625 2.4375 5 5 C5.680625 5.721875 6.36125 6.44375 7.0625 7.1875 C13.63250677 16.7246066 14.96706715 26.88989612 12.9375 38.125 C11.41373854 44.43378615 9.17946644 49.06152668 5 54 C4.4740625 54.63550781 3.948125 55.27101563 3.40625 55.92578125 C-3.58423191 63.62520355 -12.75211375 67.19624422 -23 68 C-34.07411015 68.12407967 -43.86230948 64.56246915 -52 57 C-59.59590319 49.18662719 -63.13034017 40.25357735 -63.4375 29.375 C-63.00088964 17.92762217 -59.18526376 9.00165667 -50.89453125 0.95703125 C-35.51886365 -11.80613354 -15.84291807 -11.88218855 0 0 Z " fill="#000000" transform="translate(186,88)"/>
<path d="M0 0 C7.93001884 5.65013842 13.36752973 14.66940179 15.1875 24.25 C15.83899771 33.32824676 15.67592669 41.13737785 11.1875 49.25 C10.53394531 50.43722656 10.53394531 50.43722656 9.8671875 51.6484375 C4.36967542 60.69079343 -3.69255045 65.6858054 -13.66796875 68.8359375 C-25.28082638 71.07812859 -35.4944391 68.57814592 -45.5 62.6875 C-52.3580978 57.8117249 -58.16423272 50.06305472 -60.41015625 41.88671875 C-62.32531747 29.33590495 -61.1692378 17.91634704 -53.5625 7.4375 C-39.57876286 -9.11829873 -18.16927456 -11.08325748 0 0 Z " fill="#000000" transform="translate(278.8125,71.75)"/>
</svg>
